<mxfile host="app.diagrams.net" modified="2024-04-29T17:59:51.202Z" agent="Mozilla/5.0 (Windows NT 10.0; Win64; x64) AppleWebKit/537.36 (KHTML, like Gecko) Chrome/124.0.0.0 Safari/537.36" version="24.3.1" etag="S4CeGr6jZj7ynozs8OGr" type="github">
  <diagram name="Page-1" id="YTNfgah5Yn6mvZ7XXSs6">
    <mxGraphModel>
      <root>
        <mxCell id="0" />
        <mxCell id="1" parent="0" />
      </root>
    </mxGraphModel>
  </diagram>
</mxfile>
